<?xml version="1.0" standalone="no"?>
<!DOCTYPE svg PUBLIC "-//W3C//DTD SVG 20010904//EN"
 "http://www.w3.org/TR/2001/REC-SVG-20010904/DTD/svg10.dtd">
<svg version="1.0" xmlns="http://www.w3.org/2000/svg"
 width="662.000000pt" height="662.000000pt" viewBox="0 0 662.000000 662.000000"
 preserveAspectRatio="xMidYMid meet">
<metadata>
Created by potrace 1.14, written by Peter Selinger 2001-2017
</metadata>
<g transform="translate(0.000000,662.000000) scale(0.100000,-0.100000)"
fill="#000000" stroke="none">
<path d="M3187 6594 c-1 -1 -51 -4 -112 -7 -164 -9 -290 -26 -475 -63 -99 -20
-380 -102 -395 -115 -5 -5 -15 -9 -23 -9 -42 0 -400 -167 -560 -261 -131 -78
-354 -233 -408 -284 -6 -5 -33 -28 -59 -50 -65 -53 -278 -265 -340 -338 -28
-32 -55 -64 -60 -70 -27 -31 -145 -188 -180 -242 -22 -33 -43 -61 -47 -63 -5
-2 -8 -7 -8 -12 0 -4 -18 -37 -40 -71 -21 -35 -50 -84 -62 -109 -13 -25 -25
-47 -28 -50 -24 -23 -192 -414 -182 -424 3 -3 -1 -6 -8 -6 -7 0 -11 -3 -7 -6
3 -4 0 -19 -9 -35 -8 -16 -12 -29 -9 -29 3 0 -1 -13 -10 -30 -8 -16 -15 -33
-15 -37 -1 -18 -23 -89 -31 -99 -5 -6 -6 -13 -4 -16 5 -5 -17 -102 -32 -148
-5 -14 -10 -42 -17 -95 -1 -12 -6 -26 -10 -33 -4 -7 -5 -12 -3 -12 2 0 1 -19
-4 -42 -5 -24 -11 -68 -15 -98 -3 -30 -10 -75 -15 -100 -11 -61 -9 -634 2
-696 5 -27 10 -64 11 -82 1 -18 5 -35 10 -38 4 -3 6 -10 3 -15 -9 -14 -15 -53
-7 -45 5 6 26 -81 48 -199 3 -16 12 -52 20 -79 7 -27 11 -52 8 -57 -3 -5 0 -9
7 -9 7 0 9 -10 7 -25 -3 -13 0 -26 5 -28 6 -2 11 -12 12 -23 3 -30 9 -48 18
-55 4 -3 9 -19 11 -36 3 -17 10 -41 16 -53 6 -12 9 -28 6 -36 -3 -8 -2 -13 3
-10 7 5 77 -164 72 -173 -2 -2 2 -7 7 -10 16 -10 43 -82 35 -95 -3 -6 -3 -8 2
-4 11 10 37 -42 30 -59 -2 -8 -1 -11 5 -8 13 8 33 -33 25 -53 -3 -9 -3 -13 1
-9 11 10 34 -13 34 -34 0 -11 3 -19 8 -19 4 0 13 -13 20 -30 7 -16 24 -45 38
-65 13 -20 21 -41 18 -47 -4 -7 -2 -8 4 -4 7 4 12 1 12 -8 0 -9 4 -16 9 -16 9
0 37 -60 33 -72 -1 -4 5 -5 13 -2 9 4 16 -3 21 -20 3 -14 10 -26 15 -26 5 0
16 -14 24 -31 9 -16 32 -48 52 -70 19 -21 33 -39 29 -39 -3 0 8 -13 26 -30 17
-16 29 -30 26 -30 -3 0 14 -21 37 -47 24 -26 41 -52 38 -58 -4 -5 -3 -7 2 -3
4 4 23 -10 41 -30 101 -109 166 -172 289 -277 32 -27 69 -60 81 -71 13 -12 25
-19 28 -17 3 3 8 -2 12 -11 3 -9 10 -16 16 -16 15 0 38 -27 30 -35 -4 -4 -2
-6 3 -5 23 5 46 -1 40 -10 -3 -5 0 -10 7 -10 7 0 24 -9 38 -20 34 -28 133 -90
142 -90 4 0 8 -8 8 -17 0 -15 2 -16 10 -3 6 10 10 11 10 3 0 -7 5 -13 10 -13
6 0 22 -7 36 -16 20 -14 22 -19 12 -32 -12 -14 -11 -14 10 -1 16 10 25 11 30
3 4 -6 39 -26 79 -45 39 -18 69 -37 66 -43 -3 -5 -1 -6 5 -2 6 3 27 -4 48 -16
21 -12 47 -24 59 -25 11 -2 22 -8 23 -13 2 -6 9 -7 15 -3 7 4 8 0 3 -13 -5
-14 -4 -16 4 -7 9 8 25 6 64 -10 28 -12 54 -25 57 -30 3 -5 9 -8 13 -8 24 3
36 -1 30 -10 -4 -7 0 -9 12 -5 11 3 32 -1 48 -9 15 -8 37 -15 48 -15 10 0 17
-4 14 -8 -3 -5 9 -9 26 -9 18 0 34 -5 36 -11 2 -6 10 -8 19 -5 9 4 14 2 11 -3
-4 -5 6 -10 20 -10 15 -1 47 -7 72 -14 62 -16 78 -20 130 -32 25 -5 52 -11 60
-13 8 -2 22 -4 30 -4 13 -1 13 -2 0 -11 -9 -6 -10 -10 -3 -10 6 0 15 5 18 10
4 6 11 7 18 3 6 -4 24 -7 40 -8 16 -1 33 -8 38 -16 7 -11 9 -11 9 -1 0 7 4 11
8 8 5 -3 25 -6 45 -8 21 -1 37 -5 37 -8 0 -7 67 -9 395 -11 317 -1 411 4 489
27 14 5 16 3 10 -7 -6 -11 -5 -12 7 -2 9 7 25 11 37 8 12 -2 22 -1 22 3 0 13
89 29 100 18 7 -7 10 -6 10 1 0 6 30 17 68 24 80 16 81 16 87 19 3 1 8 3 13 4
4 2 27 8 52 15 25 7 50 14 55 15 6 1 16 5 23 9 6 5 16 6 21 2 5 -3 12 -1 16 5
4 6 10 8 15 5 5 -3 11 -1 15 5 4 6 11 8 16 5 5 -4 9 -2 9 4 0 5 11 8 25 6 14
-1 23 0 20 3 -4 5 92 46 130 56 6 2 37 15 70 31 33 15 70 28 82 29 11 0 19 4
17 8 -4 6 55 32 69 29 4 0 7 3 7 8 0 8 37 24 53 22 4 -1 7 4 7 10 0 7 9 9 21
6 12 -3 18 -3 15 0 -9 9 15 34 26 27 5 -3 4 -13 -4 -22 -12 -15 -11 -16 4 -3
10 7 16 17 13 21 -3 4 1 13 9 19 11 9 15 9 19 -1 3 -8 6 -6 6 6 1 12 6 16 17
12 8 -3 13 -2 10 3 -8 12 22 23 37 14 7 -3 9 -3 5 2 -10 10 11 37 23 29 5 -3
9 0 9 7 0 6 8 9 19 6 14 -3 18 -1 14 9 -3 8 1 14 11 14 9 0 16 4 16 9 0 6 9 8
19 6 15 -3 18 1 14 12 -4 10 -2 14 4 10 6 -4 14 0 17 9 4 9 13 14 21 10 9 -3
15 0 15 9 0 8 7 15 15 15 8 0 15 5 15 11 0 6 8 9 19 6 12 -3 18 1 17 11 0 8 5
17 13 20 9 3 11 0 6 -9 -5 -8 -4 -11 1 -6 5 5 9 12 9 16 0 13 30 38 53 45 12
4 20 11 18 15 -3 4 12 18 33 32 22 13 37 27 34 32 -2 4 0 7 5 7 11 0 52 34
119 98 24 23 49 39 55 36 7 -4 8 -2 4 5 -9 13 48 71 70 71 8 0 11 6 7 17 -5
13 -2 15 17 10 16 -4 20 -3 12 5 -12 12 16 50 31 41 6 -3 7 -1 3 5 -3 6 3 16
14 22 11 6 17 16 14 22 -5 7 -2 9 9 5 9 -3 19 -1 23 5 4 7 3 8 -4 4 -22 -13
-12 5 17 35 16 16 35 29 43 29 10 0 10 2 -1 9 -11 7 -11 10 0 17 8 5 27 27 43
49 16 22 39 48 50 58 12 10 14 15 6 11 -14 -7 24 43 45 58 6 4 6 8 2 8 -4 0
-2 6 5 14 7 8 16 12 20 9 4 -2 5 3 2 11 -3 9 -1 16 6 16 6 0 8 5 5 10 -3 6 -1
10 5 10 6 0 15 11 20 25 7 17 15 23 27 19 14 -5 15 -4 4 4 -11 8 -4 25 33 86
25 41 46 80 46 86 0 5 5 10 10 10 6 0 10 7 10 15 0 8 5 15 12 15 6 0 8 3 5 7
-4 3 3 21 14 40 11 18 17 33 12 33 -4 0 -3 4 2 8 16 12 45 69 38 76 -3 3 -1 6
6 6 7 0 9 4 6 10 -3 5 -1 10 4 10 6 0 11 9 11 20 0 11 4 20 10 20 5 0 9 3 9 8
-3 19 2 33 11 27 6 -4 7 1 3 11 -5 14 -3 16 12 11 15 -6 16 -5 5 8 -9 11 -10
18 -1 28 6 8 8 17 4 20 -3 4 -2 7 3 7 5 0 10 10 11 22 1 11 7 24 13 28 7 4 11
10 10 14 -4 15 44 145 52 140 4 -3 5 2 2 11 -3 8 1 33 9 54 9 21 13 41 10 45
-4 3 -2 6 3 6 5 0 11 12 12 28 1 15 11 58 22 97 11 38 20 80 20 92 0 13 4 23
9 23 5 0 7 14 6 31 -2 19 3 33 12 36 12 5 12 7 1 14 -11 7 -11 9 1 9 10 0 11
3 2 14 -8 9 -8 16 -2 20 5 4 10 14 10 24 0 9 2 33 5 52 16 125 20 216 20 465
0 154 -3 305 -7 335 -4 30 -9 78 -12 105 -3 28 -7 61 -11 75 -3 14 -7 34 -9
46 -2 18 -16 85 -30 149 -2 11 -11 46 -20 79 -8 32 -16 69 -17 82 -1 13 -5 24
-9 24 -4 0 -10 17 -14 38 -4 20 -11 43 -17 50 -6 6 -8 12 -4 12 9 0 -66 204
-126 340 -24 55 -118 242 -145 290 -53 93 -174 281 -220 340 -143 186 -350
408 -478 515 -33 28 -66 56 -74 63 -8 8 -39 32 -70 55 -31 23 -58 45 -61 48
-3 3 -36 27 -75 52 -38 26 -74 50 -80 55 -59 47 -380 220 -510 274 -93 39
-245 96 -245 92 0 -2 -13 2 -30 11 -16 8 -32 15 -35 15 -3 0 -6 0 -7 1 -2 0
-10 2 -18 4 -8 2 -49 13 -90 25 -41 12 -84 23 -95 25 -11 2 -27 6 -35 8 -45
12 -69 17 -104 22 -21 3 -41 7 -45 10 -4 2 -29 6 -57 10 -27 3 -62 8 -79 10
-106 17 -246 26 -433 28 -79 1 -144 1 -145 1z m227 -1855 c-3 -5 5 -6 18 -1
27 8 56 8 79 -2 9 -4 20 -6 25 -5 11 3 83 -10 104 -18 8 -4 19 -5 24 -4 4 1
14 -4 22 -10 8 -6 14 -8 14 -4 0 4 6 2 13 -4 8 -6 17 -8 20 -4 4 3 7 1 7 -6 0
-7 4 -10 9 -6 11 6 137 -39 158 -56 7 -6 11 -15 8 -19 -3 -5 0 -12 6 -16 7 -4
9 -3 5 4 -8 13 14 28 23 15 3 -6 16 -13 29 -17 12 -4 19 -12 16 -18 -4 -7 -2
-8 5 -4 6 4 24 -2 40 -13 16 -12 34 -21 40 -21 6 0 11 -4 11 -10 0 -5 7 -10
16 -10 10 0 14 -6 11 -14 -4 -10 0 -12 14 -9 10 3 19 1 19 -3 0 -5 18 -20 40
-34 28 -17 36 -27 29 -36 -7 -8 -6 -15 2 -20 8 -4 9 -3 5 4 -23 38 62 -22 108
-76 6 -7 28 -31 49 -53 20 -22 34 -46 31 -51 -4 -6 -2 -8 3 -5 6 4 18 -2 28
-13 10 -11 15 -20 11 -20 -4 0 3 -11 16 -25 38 -40 49 -55 42 -55 -4 0 1 -9
10 -19 10 -11 15 -25 10 -32 -4 -7 -3 -10 3 -6 9 6 50 -52 45 -65 -1 -5 3 -8
9 -8 5 0 7 -4 4 -10 -3 -5 -1 -10 6 -10 6 0 9 -8 6 -20 -3 -11 -1 -17 4 -14 5
3 12 -3 15 -13 3 -10 13 -33 21 -51 8 -18 11 -38 7 -45 -4 -6 -3 -9 1 -4 14
12 44 -86 31 -102 -8 -11 -8 -13 1 -8 15 9 20 1 27 -44 3 -20 8 -42 11 -51 8
-20 16 -89 20 -183 3 -44 5 -80 5 -80 1 0 3 -10 6 -23 3 -15 0 -21 -7 -16 -8
4 -8 1 -2 -12 5 -11 8 -28 7 -39 -1 -11 -4 -51 -8 -90 -3 -38 -8 -83 -12 -100
-4 -16 -6 -38 -6 -47 0 -10 -3 -18 -7 -18 -4 0 -8 -12 -8 -27 0 -34 -52 -190
-90 -269 -157 -336 -435 -602 -768 -736 -84 -34 -126 -49 -150 -54 -5 -1 -37
-9 -70 -18 -33 -8 -81 -18 -105 -21 -25 -3 -61 -8 -80 -10 -43 -7 -215 -7
-290 0 -93 7 -129 15 -290 59 -149 41 -374 163 -495 268 -196 170 -334 362
-424 590 -30 76 -69 213 -77 272 -2 17 -6 42 -9 56 -3 14 -8 78 -10 143 -3 90
-1 116 8 110 9 -5 9 -3 0 8 -7 8 -11 26 -8 40 2 13 6 51 9 84 3 33 10 74 15
92 5 17 7 34 3 37 -3 3 0 6 6 6 6 0 9 7 5 16 -3 8 -1 25 5 37 6 12 18 50 28
84 10 34 22 59 27 56 6 -3 7 -1 3 5 -3 6 -1 23 6 39 6 15 12 30 13 33 5 23 38
70 45 65 5 -3 12 -1 15 5 4 6 3 10 -2 9 -22 -4 -23 3 -4 30 12 16 21 32 21 35
0 12 97 151 119 170 11 11 21 25 21 33 0 12 13 18 34 14 5 -1 6 6 2 15 -4 12
-2 15 9 11 8 -4 17 -1 21 5 4 7 3 8 -4 4 -31 -19 -6 14 44 59 31 28 69 62 86
77 16 15 38 30 49 33 10 4 19 10 19 14 0 17 78 60 101 55 20 -4 21 -3 5 4 -18
8 -17 10 13 25 19 9 38 14 44 10 5 -3 7 -2 4 3 -8 13 23 31 50 29 15 -1 19 3
15 13 -4 11 -1 14 11 9 9 -3 17 -3 17 2 0 8 55 32 100 44 3 0 16 6 29 13 27
14 45 9 35 -9 -4 -7 -3 -8 2 -4 5 5 9 13 9 19 0 6 7 12 15 14 38 7 61 13 69
18 5 3 30 8 57 11 27 4 51 8 53 11 2 2 11 -2 19 -9 13 -10 14 -9 7 2 -6 11 -4
13 8 8 9 -3 19 -1 23 5 4 7 9 6 15 -3 6 -10 9 -10 9 -2 0 8 20 11 65 10 36 -1
65 0 65 3 0 3 29 3 65 2 36 -2 63 -8 59 -13z"/>
<path d="M3160 4720 c-9 -6 -10 -10 -3 -10 6 0 15 5 18 10 8 12 4 12 -15 0z"/>
<path d="M3016 4707 c3 -10 9 -15 12 -12 3 3 0 11 -7 18 -10 9 -11 8 -5 -6z"/>
<path d="M2961 4696 c-9 -11 -9 -16 1 -22 7 -4 10 -4 6 1 -4 4 -3 14 3 22 6 7
9 13 6 13 -2 0 -10 -6 -16 -14z"/>
<path d="M3560 4700 c-9 -6 -10 -10 -3 -10 6 0 15 5 18 10 8 12 4 12 -15 0z"/>
<path d="M3353 4675 c0 -8 4 -12 9 -9 5 3 6 10 3 15 -9 13 -12 11 -12 -6z"/>
<path d="M3466 4682 c-3 -5 1 -9 9 -9 8 0 12 4 9 9 -3 4 -7 8 -9 8 -2 0 -6 -4
-9 -8z"/>
<path d="M2947 4659 c7 -7 15 -10 18 -7 3 3 -2 9 -12 12 -14 6 -15 5 -6 -5z"/>
<path d="M3540 4660 c-8 -5 -10 -10 -5 -10 6 0 17 5 25 10 8 5 11 10 5 10 -5
0 -17 -5 -25 -10z"/>
<path d="M3793 4645 c0 -8 4 -12 9 -9 5 3 6 10 3 15 -9 13 -12 11 -12 -6z"/>
<path d="M3706 4642 c-3 -5 1 -9 9 -9 8 0 12 4 9 9 -3 4 -7 8 -9 8 -2 0 -6 -4
-9 -8z"/>
<path d="M2839 4613 c-13 -16 -12 -17 4 -4 16 13 21 21 13 21 -2 0 -10 -8 -17
-17z"/>
<path d="M2775 4611 c-3 -5 -2 -12 3 -15 5 -3 9 1 9 9 0 17 -3 19 -12 6z"/>
<path d="M3960 4560 c-9 -6 -10 -10 -3 -10 6 0 15 5 18 10 8 12 4 12 -15 0z"/>
<path d="M3867 4539 c7 -7 15 -10 18 -7 3 3 -2 9 -12 12 -14 6 -15 5 -6 -5z"/>
<path d="M2450 4439 c0 -5 5 -7 10 -4 6 3 10 8 10 11 0 2 -4 4 -10 4 -5 0 -10
-5 -10 -11z"/>
<path d="M2361 4376 c-9 -11 -9 -16 1 -22 7 -4 10 -4 6 1 -4 4 -3 14 3 22 6 7
9 13 6 13 -2 0 -10 -6 -16 -14z"/>
<path d="M2290 4319 c0 -5 5 -7 10 -4 6 3 10 8 10 11 0 2 -4 4 -10 4 -5 0 -10
-5 -10 -11z"/>
<path d="M4295 4320 c3 -5 8 -10 11 -10 2 0 4 5 4 10 0 6 -5 10 -11 10 -5 0
-7 -4 -4 -10z"/>
<path d="M4350 4220 c0 -5 5 -10 10 -10 6 0 10 5 10 10 0 6 -4 10 -10 10 -5 0
-10 -4 -10 -10z"/>
<path d="M6186 1662 c-3 -5 1 -9 9 -9 8 0 15 4 15 9 0 4 -4 8 -9 8 -6 0 -12
-4 -15 -8z"/>
<path d="M711 1213 c7 -12 15 -20 18 -17 3 2 -3 12 -13 22 -17 16 -18 16 -5
-5z"/>
<path d="M850 1065 c0 -5 5 -17 10 -25 5 -8 10 -10 10 -5 0 6 -5 17 -10 25 -5
8 -10 11 -10 5z"/>
<path d="M5730 1039 c0 -5 5 -7 10 -4 6 3 10 8 10 11 0 2 -4 4 -10 4 -5 0 -10
-5 -10 -11z"/>
<path d="M935 960 c-3 -5 -1 -10 4 -10 6 0 11 5 11 10 0 6 -2 10 -4 10 -3 0
-8 -4 -11 -10z"/>
<path d="M5455 771 c-3 -5 -2 -12 3 -15 5 -3 9 1 9 9 0 17 -3 19 -12 6z"/>
<path d="M5373 685 c0 -8 4 -12 9 -9 5 3 6 10 3 15 -9 13 -12 11 -12 -6z"/>
<path d="M1215 680 c-3 -5 -1 -10 4 -10 6 0 11 5 11 10 0 6 -2 10 -4 10 -3 0
-8 -4 -11 -10z"/>
<path d="M1295 640 c3 -5 8 -10 11 -10 2 0 4 5 4 10 0 6 -5 10 -11 10 -5 0 -7
-4 -4 -10z"/>
<path d="M1390 581 c0 -6 4 -13 10 -16 6 -3 7 1 4 9 -7 18 -14 21 -14 7z"/>
<path d="M5196 547 c3 -10 9 -15 12 -12 3 3 0 11 -7 18 -10 9 -11 8 -5 -6z"/>
<path d="M1453 531 c0 -11 5 -18 9 -15 4 3 5 11 1 19 -7 21 -12 19 -10 -4z"/>
<path d="M5075 469 c-4 -6 -5 -12 -2 -15 2 -3 7 2 10 11 7 17 1 20 -8 4z"/>
<path d="M5035 460 c-3 -5 -1 -10 4 -10 6 0 11 5 11 10 0 6 -2 10 -4 10 -3 0
-8 -4 -11 -10z"/>
<path d="M1550 420 c0 -5 5 -10 11 -10 5 0 7 5 4 10 -3 6 -8 10 -11 10 -2 0
-4 -4 -4 -10z"/>
<path d="M4976 402 c-3 -5 1 -9 9 -9 8 0 12 4 9 9 -3 4 -7 8 -9 8 -2 0 -6 -4
-9 -8z"/>
<path d="M1790 356 c0 -2 8 -10 18 -17 15 -13 16 -12 3 4 -13 16 -21 21 -21
13z"/>
<path d="M4755 299 c-3 -4 2 -6 10 -5 21 3 28 13 10 13 -9 0 -18 -4 -20 -8z"/>
<path d="M4615 260 c-3 -6 1 -7 9 -4 18 7 21 14 7 14 -6 0 -13 -4 -16 -10z"/>
<path d="M4735 261 c-3 -5 -2 -12 3 -15 5 -3 9 1 9 9 0 17 -3 19 -12 6z"/>
<path d="M4655 251 c-3 -5 -2 -12 3 -15 5 -3 9 1 9 9 0 17 -3 19 -12 6z"/>
<path d="M2013 232 c0 -12 5 -22 9 -22 11 0 10 12 -2 30 -7 12 -9 10 -7 -8z"/>
<path d="M2053 211 c0 -11 5 -18 9 -15 4 3 5 11 1 19 -7 21 -12 19 -10 -4z"/>
<path d="M4355 120 c3 -5 8 -10 11 -10 2 0 4 5 4 10 0 6 -5 10 -11 10 -5 0 -7
-4 -4 -10z"/>
<path d="M2480 80 c-9 -6 -10 -10 -3 -10 6 0 15 5 18 10 8 12 4 12 -15 0z"/>
<path d="M2516 58 c3 -5 10 -6 15 -3 13 9 11 12 -6 12 -8 0 -12 -4 -9 -9z"/>
<path d="M2576 62 c-2 -4 4 -8 14 -8 10 0 16 4 14 8 -7 10 -21 10 -28 0z"/>
<path d="M4057 55 c-4 -8 -3 -16 1 -19 4 -3 9 4 9 15 2 23 -3 25 -10 4z"/>
<path d="M2474 36 c1 -8 5 -18 8 -22 4 -3 5 1 4 10 -1 8 -5 18 -8 22 -4 3 -5
-1 -4 -10z"/>
<path d="M2555 31 c-3 -5 -2 -12 3 -15 5 -3 9 1 9 9 0 17 -3 19 -12 6z"/>
<path d="M2627 19 c7 -7 15 -10 18 -7 3 3 -2 9 -12 12 -14 6 -15 5 -6 -5z"/>
</g>
</svg>
