<svg xmlns="http://www.w3.org/2000/svg" fill="none" viewBox="0 0 429 433">
  <path fill="#fff" fill-rule="evenodd" d="M270.382 323.822a1.459 1.459 0 0 1-1.591 1.31c-13.029-1.248-25.836-6.71-36.815-11.729-11.562-5.281-23.198-11.9-34.58-19.67a299.477 299.477 0 0 1-29.706-23.114 1.454 1.454 0 0 1-.123-2.056 1.461 1.461 0 0 1 2.061-.124 296.269 296.269 0 0 0 29.414 22.89c11.25 7.675 22.738 14.212 34.152 19.427 10.76 4.922 23.298 10.272 35.876 11.478a1.458 1.458 0 0 1 1.312 1.588Zm-32.319-65.29a1.462 1.462 0 0 1 1.82.976c.498 1.656.939 3.561 1.12 5.498.283 3.036-.078 6.151-1.87 8.508-1.903 2.504-5.067 3.729-9.399 3.646-5.552-.107-11.65-1.815-19.193-5.38a1.457 1.457 0 0 1-.696-1.939 1.46 1.46 0 0 1 1.947-.691c7.055 3.332 12.944 5.003 17.998 5.099 3.35.064 5.71-.773 7.019-2.495 1.714-2.251 1.812-6.305.278-11.41a1.457 1.457 0 0 1 .976-1.812Zm15.407 36.956c-13.357 3.936-30.032-4.692-38.045-8.838-11.749-6.071-23.233-13.793-34.126-22.953-8.532-7.171-19.407-16.881-27.886-28.441-6.276-8.551-14.327-21.214-11.785-32.363.8-3.498 2.665-6.053 5.548-7.586 5.446-2.904 14.29-2.046 26.282 2.543 13.592 5.195 25.075 13.888 33.555 20.882 12.926 10.653 21.913 20.375 28.282 30.593.189.303.37.61.562.946.401.698.16 1.589-.544 1.985a1.456 1.456 0 0 1-1.989-.538 24.914 24.914 0 0 0-.507-.851c-6.199-9.948-14.99-19.442-27.663-29.89-8.311-6.853-19.544-15.364-32.739-20.405-11.012-4.217-19.267-5.149-23.866-2.697-2.13 1.136-3.465 2.99-4.074 5.663-2.539 11.152 7.872 25.335 11.292 29.997 8.296 11.311 19.008 20.868 27.412 27.933 10.727 9.023 22.028 16.626 33.589 22.596 7.676 3.972 23.645 12.235 35.877 8.629 8.053-2.374 8.411-11.384 7.936-18.378-2.261-11.508-9.997-22.181-18.017-32.005-16.671-20.405-38.235-38.6-62.36-52.619-11.888-6.903-23.031-11.675-34.066-14.583-6.777-1.788-16.252-3.592-22.96.135a11.27 11.27 0 0 1 4.012 7.613c.582 6.23-4.019 11.771-10.263 12.353-.2.019-.404.013-.606.021.708 3.517 1.961 7.346 3.811 11.449 4.65 10.317 11.412 20.895 20.102 31.445 7.342 8.897 15.512 17.545 24.288 25.699.275.256.428.589.461.932.036.397-.093.812-.388 1.126a1.455 1.455 0 0 1-2.061.074c-8.872-8.24-17.131-16.983-24.555-25.979-8.853-10.748-15.755-21.549-20.507-32.101-2.087-4.627-3.467-8.956-4.177-12.921-4.734-1.077-8.267-5.051-8.727-9.986-.581-6.223 4.02-11.763 10.251-12.345 1.921-.179 3.826.157 5.586.921 7.716-5.306 18.746-3.291 26.478-1.252 11.292 2.976 22.67 7.844 34.788 14.882 24.427 14.192 46.265 32.621 63.156 53.298 8.257 10.114 16.234 21.146 18.618 33.279.182.931.322 1.896.413 2.875.716 7.634-1.581 16.265-10.388 18.862ZM119.871 176.489a8.436 8.436 0 0 0-4.781-.966c-4.631.432-8.048 4.548-7.617 9.173a8.372 8.372 0 0 0 7.26 7.564 8.168 8.168 0 0 0 1.924.049c4.639-.433 8.059-4.553 7.627-9.182a8.376 8.376 0 0 0-4.413-6.638Z" clip-rule="evenodd"/>
  <path fill="#fff" fill-rule="evenodd" d="M428.531 387.934c-1.391 13.468-6.566 24.513-14.957 31.938-7.421 6.565-17.643 10.848-29.564 12.384-13.098 1.687-27.901.433-46.584-3.951a1.457 1.457 0 1 1 .666-2.835c18.336 4.303 32.806 5.542 45.545 3.899 11.341-1.462 21.021-5.5 28.002-11.674 7.837-6.936 12.671-17.331 13.987-30.057 2.84-27.473-10.127-54.519-22.505-77.712a1.454 1.454 0 0 1 .602-1.968 1.46 1.46 0 0 1 1.976.6c10.181 19.079 20.758 40.753 22.864 63.32.496 5.313.523 10.669-.032 16.056Zm-32.648-93.759a1.462 1.462 0 0 1-2.004-.495 355.288 355.288 0 0 0-2.467-4.024 1.458 1.458 0 0 1 2.483-1.534 360.102 360.102 0 0 1 2.481 4.053c.118.195.187.406.207.617.05.54-.204 1.085-.7 1.383Zm-11.638-18.258a1.456 1.456 0 0 1-2.026-.397c-27.122-40.403-62.369-79.175-110.929-122.029a1.454 1.454 0 0 1-.127-2.056 1.462 1.462 0 0 1 2.061-.124c48.751 43.019 84.153 81.975 111.42 122.589a1.448 1.448 0 0 1-.399 2.017Zm-90.983-48.51a1.453 1.453 0 0 1-.137 2.054 1.46 1.46 0 0 1-2.058-.135 408.927 408.927 0 0 0-7.596-8.424c-20.863-22.546-44.45-43.935-70.103-63.573-26.389-20.206-53.142-37.281-79.514-50.755-46.082-23.547-71.945-26.305-87.393-26.329-9.383-.015-26.53 1.913-35.908 14.999-6.419 8.962-8.379 21.2-5.846 36.365 5.345 31.901 24.885 61.578 43.297 86.398.48.644.344 1.56-.306 2.039a1.458 1.458 0 0 1-2.04-.304c-18.617-25.098-38.383-55.143-43.829-87.651-2.672-15.952-.532-28.926 6.353-38.538C18.318 79.399 36.52 77.315 46.468 77.331c32.878.058 66.381 15.235 88.717 26.651 26.527 13.551 53.431 30.722 79.96 51.037 25.784 19.736 49.496 41.239 70.47 63.908a428.094 428.094 0 0 1 7.647 8.48ZM255.15 139.68a807.193 807.193 0 0 0-7.683-6.337c-21.197-17.296-43.298-33.72-65.691-48.815-23.162-15.601-46.691-29.702-69.936-41.905-17.178-9.037-32.928-16.429-48.11-22.594-2.059 3.999-6.06 6.775-10.589 7.198-7.291.68-13.776-4.683-14.455-11.954a13.31 13.31 0 0 1 .749-5.795v-.004C41.2 4.701 45.612 1.315 50.679.842c7.291-.68 13.776 4.686 14.456 11.962a13.15 13.15 0 0 1-.354 4.506c15.29 6.208 31.139 13.643 48.418 22.737 23.341 12.252 46.963 26.408 70.21 42.067 22.466 15.144 44.641 31.618 65.905 48.974a773.378 773.378 0 0 1 7.708 6.36c.31.257.485.614.519.98a1.462 1.462 0 0 1-2.391 1.252ZM62.228 13.075c-.53-5.679-5.588-9.864-11.279-9.333a10.438 10.438 0 0 0-8.775 6.741 10.368 10.368 0 0 0-.582 4.518c.53 5.671 5.592 9.857 11.279 9.326 3.927-.367 7.365-2.992 8.757-6.687.543-1.459.747-2.998.6-4.565Zm-6.047 215.587c15.408 19.417 33.519 38.853 55.377 59.421.268.253.421.581.452.921.038.404-.091.82-.393 1.137a1.463 1.463 0 0 1-2.063.06c-21.959-20.661-40.164-40.202-55.662-59.73a1.456 1.456 0 0 1 .24-2.048 1.462 1.462 0 0 1 2.049.239Zm122.207-66.141c9.777 6.076 19.814 13.061 29.833 20.753.337.258.529.628.565 1.021.033.351-.062.718-.298 1.022a1.464 1.464 0 0 1-2.047.267c-9.946-7.637-19.9-14.561-29.597-20.592a1.45 1.45 0 0 1-.466-2.005 1.461 1.461 0 0 1 2.01-.466Zm-16.559-6.285a340.526 340.526 0 0 0-18.617-9.398c-10.296-4.805-21.455-9.541-33.315-11.649-12.579-2.234-22.526-1.108-29.557 3.349a1.46 1.46 0 0 1-2.014-.444 1.456 1.456 0 0 1 .449-2.011c7.668-4.863 18.313-6.127 31.637-3.76 12.19 2.164 23.563 6.987 34.039 11.878a338.637 338.637 0 0 1 18.777 9.482 1.454 1.454 0 0 1 .581 1.976 1.46 1.46 0 0 1-1.98.577Zm28.872 99.681a1.45 1.45 0 0 1 .354 2.027 1.459 1.459 0 0 1-2.032.353c-9.705-6.818-17.727-14.459-23.848-22.712-4.554-6.137-13.985-18.858-7.541-26.692a1.465 1.465 0 0 1 2.054-.199c.623.509.713 1.426.202 2.049-5.001 6.073 3.84 17.995 7.613 23.086 5.951 8.025 13.751 15.447 23.198 22.088Zm38.202-51.715a1.446 1.446 0 0 1-.107-2.054 1.458 1.458 0 0 1 2.058-.108c16.768 15.059 31.226 30.936 42.969 47.192 9.532 13.19 19.203 28.642 20.724 44.934a47.39 47.39 0 0 1 .192 5.569c-.245 9.278-4.477 16.487-11.608 19.78a1.458 1.458 0 0 1-1.936-.71c-.34-.73-.02-1.594.712-1.933 6.085-2.811 9.698-9.082 9.912-17.211.461-17.467-10.034-34.434-20.364-48.727-11.623-16.084-25.938-31.806-42.552-46.732ZM66.275 160.197c.103-3.19.582-6.24 1.421-9.06a1.463 1.463 0 0 1 1.816-.985 1.453 1.453 0 0 1 .982 1.809c-.766 2.585-1.207 5.388-1.302 8.329-.545 16.409 8.507 33.163 15.36 44.342 8.504 13.873 19.119 27.865 31.548 41.589 22.515 24.86 48.637 47.6 77.647 67.595 35.11 24.202 64.479 38.767 92.424 45.828 12.07 3.052 27.638 5.864 40.994.485 11.984-4.828 18.927-17.005 18.116-31.783-.808-14.713-7.483-29.218-14.581-42.704-7.711-14.652-17.226-28.967-29.095-43.761a1.456 1.456 0 0 1 .229-2.047 1.46 1.46 0 0 1 2.051.227c11.982 14.943 21.6 29.409 29.399 44.228 6.889 13.087 13.392 27.147 14.742 41.611.071.759.13 1.519.171 2.285.881 16.062-6.761 29.336-19.94 34.645-14.14 5.696-30.303 2.798-42.804-.361-28.292-7.151-57.961-21.852-93.367-46.254-29.191-20.124-55.487-43.015-78.15-68.04-12.553-13.857-23.277-27.995-31.876-42.023-7.046-11.496-16.353-28.767-15.785-45.955Zm60.767 141.995a910.923 910.923 0 0 0 6.929 6.022c.298.254.468.604.502.966a1.462 1.462 0 0 1-2.407 1.242 826.69 826.69 0 0 1-6.953-6.043 1.45 1.45 0 0 1-.127-2.056 1.455 1.455 0 0 1 2.056-.131Zm13.487 11.599a736.411 736.411 0 0 0 26.52 21.244c19.818 15.148 40.437 29.231 61.295 41.859a1.454 1.454 0 0 1 .488 2 1.459 1.459 0 0 1-2.003.492c-20.943-12.686-41.652-26.829-61.552-42.037a742.596 742.596 0 0 1-26.627-21.33 1.454 1.454 0 0 1-.177-2.052 1.46 1.46 0 0 1 2.056-.176Z" clip-rule="evenodd"/>
</svg>