<svg xmlns="http://www.w3.org/2000/svg" fill="currentColor" viewBox="0 0 25 25">
  <path  d="M12.172 0h.652c1.627.044 3.247.402 4.735 1.063a12.556 12.556 0 0 1 5.037 4.062A12.442 12.442 0 0 1 25 12.177v.647a12.483 12.483 0 0 1-3.902 8.753 12.508 12.508 0 0 1-3.963 2.538c-1.37.55-2.838.844-4.312.885h-.648a12.497 12.497 0 0 1-9.02-4.194 12.51 12.51 0 0 1-2.122-3.316A12.516 12.516 0 0 1 0 12.822v-.646c.016-.454.048-.909.11-1.36C.273 9.6.62 8.407 1.132 7.29A12.514 12.514 0 0 1 3.56 3.761 12.485 12.485 0 0 1 12.172 0Zm.058 4.535A3.87 3.87 0 0 0 9.96 5.64 4.085 4.085 0 0 0 8.887 7.5a4.193 4.193 0 0 0 .08 2.409 4.07 4.07 0 0 0 1.292 1.859c.6.488 1.348.793 2.12.85.736.06 1.489-.1 2.136-.457a4.003 4.003 0 0 0 1.394-1.272 4.161 4.161 0 0 0 .184-4.339 4.026 4.026 0 0 0-1.534-1.547 3.827 3.827 0 0 0-2.33-.467Zm-3.6 8.555c-.228.22-.36.533-.364.85-.006.348.143.698.408.926.098.086.212.15.321.218a7.238 7.238 0 0 0 2.094.858c-.725.75-1.453 1.499-2.179 2.248a1.218 1.218 0 0 0-.13 1.573 1.126 1.126 0 0 0 1.539.295c.16-.1.279-.251.413-.383l1.948-2.011 2.174 2.24c.26.27.66.395 1.027.316.365-.072.68-.337.826-.677a1.228 1.228 0 0 0-.095-1.155c-.07-.113-.168-.204-.26-.299l-2.082-2.147a7.252 7.252 0 0 0 2.29-.98c.246-.16.425-.417.496-.701a1.222 1.222 0 0 0-.046-.75 1.18 1.18 0 0 0-.585-.634 1.118 1.118 0 0 0-.911-.024c-.129.05-.238.136-.357.204a4.862 4.862 0 0 1-5.127-.106 1.119 1.119 0 0 0-1.4.14Z"/>
  <path  d="M12.39 6.915c.346-.065.712-.01 1.024.153.332.173.6.464.75.806.128.29.173.615.13.93a1.695 1.695 0 0 1-.552 1.039 1.583 1.583 0 0 1-1.857.193 1.676 1.676 0 0 1-.708-.818 1.724 1.724 0 0 1-.087-1.016c.073-.337.251-.652.505-.886.221-.204.5-.346.795-.401Z"/>
</svg>