<svg xmlns="http://www.w3.org/2000/svg" fill="none" viewBox="0 0 462 417">
  <path fill="#fff" fill-rule="evenodd" d="M410.952 218.324c-10.427 7.966-21.847 15.833-34.36 23.501-3.475 36.049-20.06 69.409-46.773 94.005-27.011 24.896-62.165 38.538-98.81 38.538-38.431 0-74.678-14.837-102.186-41.724-14.399 2.19-28.103 3.684-41.013 4.282-4.965.199-9.732.398-14.3.398-40.12 0-65.443-9.361-71.798-26.787-9.037-24.896 22.343-62.139 83.913-99.781 8.541-73.99 71.004-129.755 145.384-129.755 34.46 0 67.231 11.95 93.547 33.857.099-.199.397-.398.695-.497 11.52-1.893 22.741-3.386 33.367-4.382.596-.1.993.398 1.093.896 0 .598-.398.996-.894 1.096a531.542 531.542 0 0 0-32.573 4.182c1.688 1.394 3.277 2.888 4.866 4.382 71.401-11.154 119.466-2.988 128.602 21.907 7.05 19.419-10.229 46.406-48.76 75.882ZM231.109 372.476c36.246 0 70.805-13.543 97.518-38.04 25.919-23.999 42.106-56.363 45.88-91.316-33.466 20.314-73.884 39.434-117.479 55.467-43.695 16.032-86.992 27.584-125.623 33.758 27.012 25.891 62.265 40.131 99.704 40.131Zm98.909-250.149c-26.912-25.294-62.066-39.335-99.009-39.335-73.585 0-135.155 55.169-143.397 128.361v.1a146.324 146.324 0 0 0-.894 16.132c0 32.065 10.228 62.338 29.493 87.731 38.234-5.975 83.021-18.124 128.801-34.853 50.05-18.323 95.631-40.331 129.991-62.438-1.886-28.779-12.115-56.064-29.791-78.869-4.569-5.975-9.732-11.651-15.194-16.829ZM84.831 233.46c-45.681 27.983-69.515 54.173-63.755 70.006 4.966 13.543 31.58 18.921 72.99 14.838 6.455-.598 13.109-1.494 19.961-2.49-17.975-24.099-28.005-52.38-29.196-82.354Zm292.059-16.63c2.582-1.693 5.164-3.386 7.746-5.178 34.261-23.701 51.143-45.011 46.177-58.554-5.362-14.838-35.651-19.717-83.02-13.743 16.982 22.606 27.012 49.294 29.097 77.475Zm80.836-73.392c-4.271-11.85-18.471-19.916-41.014-23.501-21.649-3.386-50.646-2.489-83.914 2.589a140.667 140.667 0 0 1 13.605 15.137c49.057-6.374 80.438-.996 86.198 14.837 5.363 14.639-11.321 36.348-46.872 60.944-35.254 24.398-85.006 48.895-140.022 69.11-55.016 20.215-108.84 33.659-151.442 37.841-9.235.896-17.776 1.394-25.422 1.394-28.005 0-45.383-5.975-49.554-17.526-6.256-17.128 17.577-43.717 65.542-72.994v-3.485c0-4.78.298-9.659.695-14.439-28.6 17.626-51.242 35.65-65.641 52.181C4.989 282.753-.672 298.089 3.698 309.939c6.753 18.522 36.644 27.485 84.112 25.095 12.811-.697 26.614-2.191 41.013-4.382.1 0 .199-.1.298 0 39.028-6.075 82.822-17.626 127.112-33.858 44.191-16.232 85.106-35.65 118.77-56.264.1 0 .1-.099.199-.099 12.513-7.668 24.131-15.535 34.459-23.402 37.737-28.978 54.917-55.068 48.065-73.591Zm-51.64 2.291c-.198.398-.596.697-.993.697h-.198c-10.328-2.689-25.025-3.286-43.596-1.693-.596.1-1.092-.398-1.092-.896-.099-.598.397-1.096.894-1.096 18.769-1.593 33.664-.996 44.29 1.793.497.099.795.697.695 1.195Zm-343.5 168.094h-.099c-16.882-1.494-26.912-6.274-29.792-14.24-1.291-3.585-1.092-7.668.695-12.149.199-.498.795-.797 1.291-.598.497.199.795.797.596 1.295-1.589 4.082-1.787 7.667-.695 10.754 2.582 7.071 12.215 11.552 28.104 12.946.496.1.894.597.894 1.095-.1.498-.497.897-.994.897Zm285.108-146.186c-.099.099-.298.099-.496.099-.397 0-.696-.199-.894-.498a84.315 84.315 0 0 0-4.37-7.667c-.297-.498-.099-1.096.298-1.395.497-.298 1.093-.099 1.391.299a123.634 123.634 0 0 1 4.469 7.867c.298.498.099 1.096-.398 1.295Zm-10.625-16.232c-.298 0-.596-.1-.795-.398-3.972-5.577-8.54-10.855-13.406-15.734a.96.96 0 0 1-.298-.697.971.971 0 0 1 .298-.698.974.974 0 0 1 .695-.299.962.962 0 0 1 .695.299c4.965 4.98 9.534 10.258 13.605 15.934.298.398.199 1.095-.199 1.394-.198.099-.397.199-.595.199Zm-28.402-28.68c-.199 0-.397-.099-.596-.199-13.307-9.759-28.004-16.829-43.893-21.012-.497-.099-.794-.697-.596-1.294.099-.498.695-.797 1.192-.697 16.087 4.282 31.082 11.452 44.489 21.41.397.299.496.996.199 1.394-.199.299-.497.398-.795.398Zm-30.189 138.12c.497-.298 1.092 0 1.291.498.298.498 0 1.096-.497 1.295-4.767 1.991-9.732 3.983-14.697 5.975-.199.099-.298.099-.397.099-.397 0-.794-.299-.993-.597-.199-.498.099-1.096.596-1.295 4.965-1.992 9.93-3.983 14.697-5.975Zm-28.402 13.245c-1.688.597-3.475 1.294-5.164 1.892-1.787.697-3.575 1.394-5.362 1.991-.099.1-.199.1-.298.1a.955.955 0 0 1-.894-.697c-.198-.498.099-1.096.596-1.295 1.788-.597 3.575-1.294 5.263-1.991 1.689-.598 3.476-1.295 5.164-1.892.497-.2 1.093.099 1.291.597.199.498-.099 1.095-.596 1.295Zm-3.773-175.961h-.099c-2.682-.299-5.264-.598-7.945-.697-.497 0-.894-.498-.993-1.096.099-.498.496-.896 1.092-.896 2.681.199 5.363.398 8.044.697.596.1.993.598.894 1.095-.1.498-.497.897-.993.897Zm-13.307 182.234c-28.303 9.958-55.81 17.925-81.729 23.8h-.199c-.497 0-.894-.299-.993-.797-.198-.497.199-1.095.695-1.194 25.919-5.876 53.328-13.842 81.53-23.701.497-.199 1.093.1 1.292.598.198.497-.1 1.095-.596 1.294Zm-96.327-142.501c-.199.199-.398.299-.695.299-.298 0-.497-.1-.795-.299a.96.96 0 0 1-.22-1.076.96.96 0 0 1 .22-.318c5.462-5.776 11.52-11.054 17.875-15.734.397-.299 1.093-.199 1.391.199.297.398.198 1.095-.199 1.394-6.256 4.68-12.215 9.859-17.577 15.535Zm-9.236 10.854c-.198.299-.496.399-.794.399a.757.757 0 0 1-.497-.2c-.397-.298-.496-.995-.198-1.394.894-1.195 1.787-2.39 2.78-3.585.298-.398.993-.398 1.39-.099.398.299.398.996.1 1.394-.993 1.095-1.887 2.29-2.781 3.485Zm-26.316 72.197c-.099.498-.496.896-1.092.896-.497-.099-.993-.498-.894-.996 1.192-23.003 8.441-45.409 20.854-64.728.298-.498.894-.597 1.391-.298.496.298.595.896.297 1.394-12.313 19.02-19.364 41.027-20.556 63.732Zm-.794 17.427c.596 0 .993.398 1.092.896.397 3.685.894 7.369 1.49 11.054a1.035 1.035 0 0 1-.795 1.195h-.198c-.497 0-.894-.299-.993-.797a105.562 105.562 0 0 1-1.49-11.253c-.099-.597.298-1.095.894-1.095Zm176.169 112.726c.198.498-.099 1.096-.596 1.295a130.56 130.56 0 0 1-31.381 7.17h-.099c-.497 0-.894-.399-.993-.897-.099-.597.298-1.095.893-1.095a131.168 131.168 0 0 0 30.885-7.07c.496-.199 1.092.099 1.291.597Zm.893-54.77c15.989-6.273 31.58-13.145 46.476-20.215.496-.199 1.092 0 1.291.498.199.498 0 1.096-.497 1.295-14.995 7.07-30.586 13.941-46.574 20.215-.199.099-.298.099-.397.099-.398 0-.795-.199-.894-.597-.199-.498.099-1.095.595-1.295Zm11.321 48.297c2.384-1.095 4.668-2.39 6.952-3.684.496-.199 1.092-.1 1.291.299.198.498.099 1.095-.397 1.394a159.035 159.035 0 0 1-7.051 3.784c-.099.1-.298.1-.397.1-.398 0-.696-.2-.894-.598-.199-.498 0-1.095.496-1.295Zm50.15-44.214c.298-.498.894-.597 1.39-.299.497.299.596.897.298 1.395-9.434 14.14-21.251 26.09-35.253 35.65-.199.099-.398.199-.596.199-.298 0-.596-.1-.795-.398-.297-.498-.198-1.096.298-1.395 13.804-9.36 25.522-21.21 34.658-35.152Zm-71.898 1.992c-2.383.896-4.766 1.792-7.249 2.689-.099.099-.199.099-.298.099-.397 0-.795-.299-.993-.697-.199-.498.099-1.095.596-1.295 2.383-.896 4.866-1.792 7.249-2.688.497-.2 1.092.099 1.291.597.199.498-.099 1.096-.596 1.295Zm-41.112 57.657c-17.279-.697-33.963-4.58-49.554-11.75-.497-.199-.695-.797-.497-1.295.199-.497.795-.697 1.291-.497 15.393 6.97 31.878 10.854 48.859 11.551.596.1.993.498.894.996a.998.998 0 0 1-.993.995ZM395.759 68.553c-2.285 0-4.271-1.892-4.271-4.282a4.239 4.239 0 0 1 1.239-3.035 4.248 4.248 0 0 1 3.032-1.247 4.241 4.241 0 0 1 4.27 4.282 4.239 4.239 0 0 1-1.239 3.035 4.242 4.242 0 0 1-3.031 1.247Zm-17.18 42.223c-2.98.099-6.058.298-9.137.498h-.099c-.496 0-.993-.399-.993-.897-.099-.597.298-1.095.993-1.095 3.078-.199 6.256-.398 9.236-.498.496 0 .992.398.992.996 0 .498-.397.996-.992.996Zm-4.568-75.384c-22.642 5.378-26.913 9.56-32.275 32.364-.099.498-.497.797-.993.797-.497 0-.894-.299-.993-.797-5.363-22.704-9.534-26.986-32.275-32.364-.397-.099-.794-.498-.794-.996 0-.497.298-.896.794-.995 22.642-5.378 26.912-9.56 32.275-32.364.099-.498.496-.797.993-.797.496 0 .894.299.993.797 5.362 22.704 9.533 26.986 32.275 32.364.496.099.794.498.794.995 0 .498-.298.897-.794.996ZM340.643 5.518c-4.766 18.92-9.93 23.999-28.798 28.878 18.868 4.88 23.933 9.958 28.798 28.879 4.867-18.921 9.931-23.999 28.799-28.879-18.868-4.879-23.932-9.958-28.799-28.878Zm-82.225 41.824c-3.773.1-6.952-3.087-6.952-6.971 0-3.883 3.179-6.97 6.952-6.97 3.873 0 6.951 3.186 6.951 6.97s-3.177 6.971-6.951 6.971Zm0-11.95c-2.681 0-4.965 2.291-4.965 4.979 0 2.789 2.284 4.979 4.965 4.979 2.781 0 4.966-2.29 4.966-4.979 0-2.788-2.285-4.979-4.966-4.979ZM117.602 69.449l-21.053 2.789-2.681 21.011c-.099.498-.497.896-.993.896-.497 0-.894-.398-.993-.896l-2.681-21.011-20.954-2.689c-.497 0-.794-.399-.794-.996 0-.498.397-.896.893-.996L89.3 64.769l2.681-20.912c.099-.498.497-.897.993-.897.497 0 .894.399.993.897l2.681 20.912 20.954 2.689c.497.099.894.497.894.995s-.397.897-.894.996Zm-22.046-2.688c-.496-.1-.794-.399-.894-.897l-1.787-14.041-1.788 14.041c-.099.498-.397.797-.894.897l-14.001 1.792 14.001 1.792c.497.1.795.399.894.897l1.788 14.14 1.787-14.14c.1-.498.398-.797.894-.897l14.002-1.792-14.002-1.792ZM63.977 217.726c.297.498.198 1.096-.298 1.394-2.384 1.594-4.667 3.287-6.952 3.98-.198 1-.397 1.099-.595 1.099-.298 0-.596-.099-.795-.398-.397-.498-.199-1.096.199-1.394 2.284-1.594 4.568-3.287 6.951-4.88.496-.299 1.093-.199 1.49.199Zm10.228-61.242c0 .497-.298.896-.794.995-9.832 2.291-11.52 3.984-13.804 13.842-.099.498-.496.797-.993.797-.496 0-.894-.299-.993-.797-2.284-9.858-3.972-11.551-13.804-13.842-.397-.099-.794-.498-.794-.995 0-.498.298-.897.794-.996 9.832-2.291 11.52-3.984 13.804-13.842.099-.498.497-.797.993-.797.497 0 .894.299.993.797 2.284 9.858 3.972 11.551 13.804 13.842.496.099.794.498.794.996Zm-15.591-10.656c-1.887 6.374-4.37 8.763-10.626 10.656 6.356 1.892 8.739 4.282 10.626 10.655 1.887-6.373 4.27-8.763 10.626-10.655-6.356-1.893-8.739-4.282-10.626-10.656Zm-10.229 74.985c.299.399.199 1.096-.198 1.395-6.952 5.078-13.506 10.356-19.464 15.435-.199.099-.497.199-.695.199-.298 0-.596-.1-.695-.299-.398-.398-.298-.996.099-1.394 5.958-5.178 12.612-10.357 19.563-15.535.398-.299 1.093-.199 1.39.199Zm-8.838 13.743c.397-.299 1.093-.2 1.391.199.297.398.198 1.095-.199 1.394-13.208 10.655-23.834 21.111-31.778 31.069-.198.299-.496.399-.795.399-.297 0-.496 0-.496-.299-.496-.299-.496-.996-.198-1.394 8.043-10.058 18.768-20.613 32.075-31.368ZM22.169 343.199c11.122 3.087 24.528 4.979 39.822 5.477.496 0 .992.498.992.897a.995.995 0 0 1-.992.995c-15.393-.498-28.998-2.39-40.319-5.477-.496-.099-.794-.697-.695-1.195.099-.497.695-.796 1.192-.697Zm22.046-1.693c.099-.597.596-.995 1.092-.896 13.705 1.693 28.793 1.992 47.468.896.497 0 .994.399.994.897.099.597-.298 1.095-.894 1.095-7.051.498-13.804.697-20.259.697-9.93 0-19.166-.498-27.508-1.593-.595-.1-.993-.598-.893-1.096Zm61.073 31.867c2.781 0 5.164 2.29 5.164 5.178s-2.284 5.178-5.164 5.178-5.164-2.29-5.164-5.178 2.284-5.178 5.164-5.178Zm-3.873-30.472c-.496 0-.993-.399-.993-.897-.099-.597.298-1.095.894-1.095 3.177-.299 6.355-.598 9.633-.996.496 0 1.191.398 1.191.896s-.397.996-.894 1.096c-3.277.398-6.554.697-9.732.996h-.099Zm52.235 55.666a9.125 9.125 0 0 1 9.136 9.161c0 5.079-4.071 9.162-9.136 9.162-5.064 0-9.136-4.083-9.136-9.162 0-5.078 4.072-9.161 9.136-9.161Zm0 16.331c3.873.1 7.15-3.186 7.15-7.17 0-3.983-3.277-7.17-7.15-7.17-3.972 0-7.15 3.286-7.15 7.17 0 3.984 3.277 7.17 7.15 7.17Zm227.808-59.251c3.277 0 6.058 2.689 6.058 6.074 0 3.386-2.781 6.075-6.058 6.075-3.277 0-6.057-2.788-6.057-6.075 0-3.286 2.78-6.074 6.057-6.074Zm0 10.157c2.185 0 4.072-1.792 4.072-4.083 0-2.29-1.887-4.082-4.072-4.082s-4.071 1.892-4.071 4.082c0 2.191 1.886 4.083 4.071 4.083Zm3.973-78.47c0-.498.397-.896.893-.996l20.954-2.788 2.681-20.912c.1-.498.497-.897.993-.897.497 0 .894.399.993.897l2.682 20.912 20.953 2.689c.497.199.894.597.894 1.095s-.397.896-.894.996l-20.953 2.688-2.682 21.012c-.099.498-.496.896-.993.896-.496 0-.893-.398-.993-.896l-2.681-21.012-20.954-2.688c-.496-.1-.893-.498-.893-.996Zm22.939 1.892c.497.1.795.398.894.896l1.787 14.141 1.788-14.141c.1-.498.397-.796.894-.896l14.002-1.892-14.002-1.793c-.497-.099-.794-.398-.894-.896l-1.788-14.041-1.787 14.041c-.099.498-.397.797-.894.896l-14.002 1.893 14.002 1.792Zm16.684-65.624c.298-.502.198 1.095-.199 1.394-6.455 5.079-13.406 10.157-20.755 15.236-.199.099-.397.199-.596.199-.298 0-.595-.1-.794-.498-.298-.498-.199-1.095.298-1.394 7.349-4.979 14.3-10.058 20.655-15.137.398-.298 1.093-.199 1.391.2Zm-32.672 23.401c.298.498.198 1.096-.298 1.395-2.781 1.692-5.561 3.485-8.342 5.178-.099.099-.298.099-.496.099-.397 0-.695-.199-.894-.498-.298-.498-.099-1.095.397-1.294 2.781-1.693 5.561-3.485 8.243-5.178.496-.299 1.092-.2 1.39.298Zm-.397-6.672a.753.753 0 0 1-.497.199c-.298 0-.596-.199-.794-.497-.298-.498-.199-1.096.298-1.395 32.175-21.011 55.81-42.322 68.322-61.441.298-.498.894-.598 1.391-.299.397.299.595.896.198 1.394-12.711 19.319-36.544 40.828-68.918 62.039Z" clip-rule="evenodd"/>
</svg>