<svg xmlns="http://www.w3.org/2000/svg" fill="none" viewBox="0 0 768 288">
  <path fill="#fff" fill-rule="evenodd" d="m767.91 205.18-21.418 33.039 21.351 32.934c.161.294-.743.565-.014.814a.728.728 0 0 1-.761.291l-37.267-8.673-24.22 23.543c-.161.174-.397.233-.707.177-.291-.075-.467-.297-.529-.666l-1.637-32.923-1.018-.377c-162.263 3.147-294.329 1.314-396.153-5.509-89.942-5.725-156.938-17.577-200.988-35.555-33.212-14.106-56.619-28.818-70.22-44.136-16.697-18.076-26.824-35.729-30.382-52.961C-6.413 73.105 9.531 35.017 51.779.915l-.62.669C11.218 37.419-2.857 74.809 8.932 113.753c4.303 16.419 14.125 32.388 29.469 47.907 14.322 14.74 36.232 27.9 65.729 39.48 44.473 17.199 110.77 27.552 198.891 31.058 62.074 3.673 194.808 1.754 398.123-5.752l.734-.279.585-36.251c.013-.31.169-.533.469-.668a.727.727 0 0 1 .795.189l24.525 26.713 39.249-12.03c.47.213.606.566.409 1.06Z" clip-rule="evenodd"/>
</svg>