<svg xmlns="http://www.w3.org/2000/svg" fill="currentColor" viewBox="0 0 25 25">
  <path d="M12.309 0h.417c1.623.032 3.241.375 4.731 1.022a12.55 12.55 0 0 1 5.068 4.01A12.465 12.465 0 0 1 25 12.308v.383a12.508 12.508 0 0 1-1.011 4.741 12.554 12.554 0 0 1-5.263 5.91 12.423 12.423 0 0 1-4.324 1.514 13.03 13.03 0 0 1-1.71.144h-.383a12.51 12.51 0 0 1-4.839-1.054 12.536 12.536 0 0 1-5.942-5.453A12.428 12.428 0 0 1 0 12.693v-.384a12.52 12.52 0 0 1 .889-4.446 12.56 12.56 0 0 1 5.275-6.14A12.42 12.42 0 0 1 9.782.297c.83-.185 1.678-.28 2.527-.297Zm.647 5.877c-.244.19-.417.455-.544.734a4.69 4.69 0 0 0-.308 1.067 10.564 10.564 0 0 0-.144 1.664c-1.168.077-2.325.416-3.326 1.028a2.168 2.168 0 0 0-.794-.428 1.714 1.714 0 0 0-.97.005 1.724 1.724 0 0 0-.816.547 2.13 2.13 0 0 0-.47 1.065c-.111.727.109 1.508.618 2.046a4.41 4.41 0 0 0-.083.675 4.16 4.16 0 0 0 .517 2.106 5.217 5.217 0 0 0 1.378 1.598 6.62 6.62 0 0 0 1.723.963 7.853 7.853 0 0 0 3.264.482 7.633 7.633 0 0 0 2.501-.579 6.427 6.427 0 0 0 1.745-1.084 4.994 4.994 0 0 0 1.269-1.688c.347-.769.46-1.646.282-2.473.613-.649.808-1.65.506-2.487a1.922 1.922 0 0 0-.864-1.04 1.688 1.688 0 0 0-1.122-.173 2.109 2.109 0 0 0-.952.465 7.31 7.31 0 0 0-3.31-1.028c.014-.429.035-.859.096-1.284.05-.334.121-.67.271-.974.073-.133.175-.281.337-.305.184-.02.401-.001.527.153.187.22.34.47.552.667.24.233.565.39.903.392V6.774c-.045-.002-.094.003-.131-.027-.096-.072-.158-.178-.23-.27a2.629 2.629 0 0 0-.567-.591 1.63 1.63 0 0 0-.834-.324 1.445 1.445 0 0 0-1.024.315Zm4.154-.183a1.48 1.48 0 0 0-.866.53c-.45.55-.523 1.366-.205 1.998.156.314.41.583.727.735.3.147.655.177.975.084.296-.085.558-.271.75-.511.454-.564.515-1.4.173-2.033a1.594 1.594 0 0 0-.71-.693 1.367 1.367 0 0 0-.844-.11Z"/>
  <path d="M17.262 6.284a.92.92 0 0 1 .795.319c.347.39.38 1.013.089 1.443a.953.953 0 0 1-.766.44.941.941 0 0 1-.768-.396 1.211 1.211 0 0 1 .018-1.44.947.947 0 0 1 .632-.366ZM11.913 10.317a7.05 7.05 0 0 1 2.632.279 6.051 6.051 0 0 1 1.9.959c.448.342.844.76 1.13 1.248.25.424.411.904.441 1.397a3.03 3.03 0 0 1-.305 1.511c-.276.574-.707 1.063-1.205 1.456a6.07 6.07 0 0 1-2.097 1.045c-1.576.444-3.312.327-4.8-.364a5.325 5.325 0 0 1-1.715-1.242c-.422-.47-.744-1.043-.863-1.668a2.95 2.95 0 0 1 .115-1.536c.203-.582.572-1.096 1.018-1.516a5.66 5.66 0 0 1 1.786-1.113c.627-.25 1.291-.4 1.963-.456Zm-1.784 2.076a.995.995 0 0 0-.615.483c-.263.455-.187 1.087.204 1.447.2.19.49.287.764.239a.962.962 0 0 0 .613-.391c.22-.3.278-.707.169-1.06a1.074 1.074 0 0 0-.512-.64.88.88 0 0 0-.623-.078Zm4.322 0a.978.978 0 0 0-.561.4c-.163.233-.23.526-.2.808.032.326.204.644.482.825.195.129.441.179.67.129a.972.972 0 0 0 .597-.415c.198-.29.25-.667.156-1.003a1.08 1.08 0 0 0-.51-.661.882.882 0 0 0-.634-.083Zm-4.634 3.725c.129.296.334.554.572.77a3.176 3.176 0 0 0 3.703.381c.47-.269.89-.658 1.113-1.158-.11.086-.232.157-.355.224a4.71 4.71 0 0 1-1.569.488 5.664 5.664 0 0 1-2.044-.09c-.504-.119-.997-.313-1.42-.615ZM7.116 10.877a1.01 1.01 0 0 1 .709.081 4.974 4.974 0 0 0-1.269 1.6 1.56 1.56 0 0 1-.045-1.1.906.906 0 0 1 .605-.581ZM17.176 10.958a1.02 1.02 0 0 1 .666-.092c.294.065.541.293.641.575.13.36.108.767-.04 1.118a4.968 4.968 0 0 0-1.267-1.6Z"/>
</svg>