<svg xmlns="http://www.w3.org/2000/svg" fill="currentColor" viewBox="0 0 25 25"><path d="M11.624.031a12.47 12.47 0 0 1 6.35 1.23 12.547 12.547 0 0 1 5.207 4.744 12.42 12.42 0 0 1 1.814 6.163 12.451 12.451 0 0 1-4.197 9.68 12.472 12.472 0 0 1-4.716 2.631c-2.24.67-4.667.694-6.92.07a12.513 12.513 0 0 1-6.1-3.854c-1.55-1.776-2.58-4-2.924-6.331a12.6 12.6 0 0 1 .204-4.776 12.46 12.46 0 0 1 2.712-5.274A12.515 12.515 0 0 1 5.732 1.99 12.422 12.422 0 0 1 11.624.031Zm-.621 9.728c-.209.03-.43.068-.596.206-.077.064-.16.141-.167.247.21.034.432.104.565.28.12.179.145.4.17.61.023.408.038.819.007 1.227-.026.225-.041.462-.151.664a.243.243 0 0 1-.304.115c-.157-.06-.27-.193-.376-.316a6.762 6.762 0 0 1-.565-.839 11.498 11.498 0 0 1-.795-1.606.515.515 0 0 0-.48-.316l-1.653.01c-.128.008-.277.024-.369.125-.057.095-.037.216.002.315.27.632.577 1.248.898 1.856.549 1.009 1.137 2.01 1.912 2.863.741.814 1.785 1.377 2.895 1.434h.84c.146-.012.31-.063.39-.195.08-.135.058-.299.07-.448.018-.238.054-.483.167-.697.065-.127.181-.25.333-.256.186.001.327.14.457.256.363.356.647.79 1.056 1.097.244.18.548.297.855.269.46-.009.92-.017 1.381-.023.253.007.568-.023.714-.261.067-.136.016-.293-.052-.418-.184-.35-.449-.647-.713-.937-.293-.317-.623-.597-.922-.907-.108-.115-.223-.24-.25-.401-.024-.142.04-.278.107-.399.123-.209.277-.397.42-.592.372-.494.757-.98 1.078-1.51.14-.237.281-.48.347-.751.025-.116.027-.264-.083-.337-.155-.1-.348-.09-.525-.085-.631.01-1.263.003-1.894.019a.357.357 0 0 0-.34.245 9.685 9.685 0 0 1-1.268 2.337c-.123.155-.25.313-.418.42-.079.05-.192.08-.267.009-.19-.167-.204-.444-.21-.68.007-.478.007-.958.03-1.437.002-.278.04-.567-.048-.837a.431.431 0 0 0-.284-.279c-.264-.087-.545-.102-.82-.107-.382-.004-.765-.013-1.144.03Z"/></svg>